<?xml version="1.0" standalone="no"?>
<!DOCTYPE svg PUBLIC "-//W3C//DTD SVG 20010904//EN"
 "http://www.w3.org/TR/2001/REC-SVG-20010904/DTD/svg10.dtd">
<svg version="1.0" xmlns="http://www.w3.org/2000/svg"
 width="1920.000000pt" height="1080.000000pt" viewBox="0 0 1920.000000 1080.000000"
 preserveAspectRatio="xMidYMid meet">

<g transform="translate(0.000000,1080.000000) scale(0.100000,-0.100000)"
fill="#000000" stroke="none">
<path d="M9360 5410 l0 -230 93 0 92 0 -41 19 c-22 10 -56 37 -75 60 -78 90
-78 202 -2 291 63 73 149 97 247 68 51 -16 119 -82 136 -133 14 -43 8 -50 -47
-61 -70 -13 -123 22 -149 98 l-17 52 -13 -45 c-18 -59 -56 -97 -113 -111 l-45
-11 46 -16 c61 -21 96 -55 112 -110 l13 -46 13 40 c27 83 69 116 147 118 53 0
67 -12 58 -51 -10 -49 -62 -108 -117 -136 l-52 -26 92 0 92 0 0 230 0 230
-235 0 -235 0 0 -230z"/>
</g>
</svg>
